<svg width="181" height="54" viewBox="0 0 181 54" fill="none" xmlns="http://www.w3.org/2000/svg">
<g clip-path="url(#clip0_605_1384)">
<path d="M16.022 26.8001C15.9 28.9621 17.5538 30.8204 19.7085 30.9443C19.7839 30.9482 19.8597 30.9505 19.9336 30.9505C22.006 30.9505 23.7222 29.3234 23.8399 27.2455C23.9626 25.0843 22.3093 23.2252 20.1533 23.1025C17.9851 22.9755 16.1447 24.6474 16.022 26.8001Z" fill="#FF5554"/>
<path d="M1.4269 25.7973C0.72968 25.7571 0.131353 26.2921 0.0924842 26.9921C0.0520824 27.6914 0.585388 28.292 1.28261 28.3317C1.9806 28.3719 2.57893 27.8358 2.61895 27.1365C2.65819 26.436 2.12489 25.8366 1.4269 25.7973Z" fill="#FF5554"/>
<path d="M15.7736 4.01573C16.3974 3.7008 16.649 2.93704 16.3346 2.31105C16.0191 1.68545 15.2588 1.43304 14.6343 1.74913C14.0106 2.06405 13.7597 2.82781 14.0741 3.45341C14.3884 4.07979 15.1491 4.33104 15.7736 4.01573Z" fill="#FF5554"/>
<path d="M19.745 10.9624C20.7104 10.4754 21.0983 9.29597 20.6119 8.32882C20.1255 7.36128 18.9497 6.97187 17.9846 7.45891C17.0204 7.94674 16.6317 9.12615 17.1189 10.0933C17.6049 11.0612 18.7807 11.451 19.745 10.9624Z" fill="#FF5554"/>
<path d="M6.38075 15.7393C7.12529 16.229 8.12341 16.0206 8.61169 15.2742C9.09883 14.5282 8.89143 13.5271 8.14804 13.0377C7.40311 12.548 6.40538 12.7564 5.91748 13.5032C5.4292 14.2492 5.63736 15.2507 6.38075 15.7393Z" fill="#FF5554"/>
<path d="M8.76065 25.0899C7.68251 25.0282 6.75904 25.8548 6.69708 26.9366C6.63552 28.0188 7.46011 28.9446 8.53863 29.0075C9.61717 29.0689 10.5422 28.2415 10.6034 27.1597C10.6638 26.0779 9.83957 25.1505 8.76065 25.0899Z" fill="#FF5554"/>
<path d="M6.59475 38.2711C5.80095 38.6725 5.4812 39.6447 5.88175 40.4412C6.28231 41.2378 7.25119 41.5581 8.04499 41.1567C8.83917 40.7546 9.15892 39.7836 8.75798 38.9863C8.35819 38.1901 7.38971 37.869 6.59475 38.2711Z" fill="#FF5554"/>
<path d="M14.1928 21.0372C15.256 21.7365 16.6827 21.439 17.3788 20.3723C18.076 19.3075 17.779 17.8764 16.7166 17.1783C15.6538 16.4782 14.2275 16.7761 13.5306 17.8413C12.8334 18.9076 13.1301 20.3379 14.1928 21.0372Z" fill="#FF5554"/>
<path d="M38.3011 10.8066C39.2046 11.4005 40.4166 11.1477 41.0092 10.2412C41.6021 9.33577 41.3501 8.11968 40.4466 7.52534C39.5436 6.93101 38.3308 7.1834 37.7386 8.09035C37.146 8.99575 37.3984 10.2126 38.3011 10.8066Z" fill="#FF5554"/>
<path d="M42.3137 3.88273C42.8978 4.26712 43.6831 4.10309 44.0664 3.51725C44.4488 2.93062 44.2857 2.14409 43.7012 1.75931C43.1179 1.37493 42.3333 1.53932 41.9489 2.12441C41.5657 2.71141 41.7292 3.49795 42.3137 3.88273Z" fill="#FF5554"/>
<path d="M38.6086 23.0621C36.4404 22.9359 34.5988 24.6078 34.4776 26.7586C34.3549 28.921 36.0083 30.7801 38.1634 30.9028C38.2384 30.9066 38.3142 30.9093 38.3889 30.9093C40.4609 30.9093 42.1767 29.2826 42.2944 27.2059C42.354 26.1577 42.0027 25.15 41.3067 24.3681C40.6114 23.5847 39.6525 23.1212 38.6086 23.0621Z" fill="#FF5554"/>
<path d="M21.0315 20.7653C21.7003 22.0972 23.0412 22.9258 24.5307 22.9258C25.1363 22.9258 25.7451 22.7799 26.2895 22.5051C28.2173 21.5302 28.9953 19.1645 28.0237 17.2305C27.3542 15.8975 26.0136 15.0701 24.5246 15.0701C23.9193 15.0701 23.3106 15.216 22.7661 15.4904C20.8384 16.4648 20.0603 18.8302 21.0315 20.7653Z" fill="#FF5554"/>
<path d="M51.7225 15.735C52.5163 15.3336 52.8368 14.3622 52.4358 13.5649C52.0349 12.7675 51.0672 12.4476 50.2722 12.8489C49.4781 13.2507 49.1583 14.2217 49.5592 15.0194C49.9602 15.8156 50.9275 16.136 51.7225 15.735Z" fill="#FF5554"/>
<path d="M41.7934 16.9861C40.6576 17.5592 40.2016 18.9474 40.7738 20.0855C41.3455 21.2236 42.7288 21.6813 43.8639 21.1082C44.9986 20.5343 45.4554 19.1465 44.884 18.0076C44.3114 16.8699 42.9277 16.4118 41.7934 16.9861Z" fill="#FF5554"/>
<path d="M29.012 3.29083C29.9001 3.34138 30.6608 2.66021 30.712 1.76909C30.762 0.878729 30.0832 0.114974 29.1952 0.0644102C28.3063 0.0138581 27.5449 0.694645 27.4948 1.58615C27.4444 2.4769 28.1232 3.24027 29.012 3.29083Z" fill="#FF5554"/>
<path d="M28.9936 13.4559C30.2626 13.5281 31.3496 12.5552 31.4219 11.2824C31.4943 10.0092 30.5239 8.91811 29.2541 8.84634C27.9862 8.77378 26.8992 9.74672 26.8265 11.0199C26.7546 12.2923 27.7246 13.383 28.9936 13.4559Z" fill="#FF5554"/>
<path d="M16.5245 37.0203C17.6596 36.4468 18.1164 35.0589 17.545 33.9208C16.9728 32.7827 15.5884 32.3238 14.454 32.8985C13.3193 33.472 12.8626 34.8583 13.4348 35.9975C14.0065 37.1357 15.3898 37.5934 16.5245 37.0203Z" fill="#FF5554"/>
<path d="M30.4811 16.8239C29.2971 18.6344 29.8023 21.0735 31.6077 22.261C32.2476 22.6821 32.9891 22.9047 33.7517 22.9047C35.078 22.9047 36.302 22.2417 37.0296 21.131C38.2124 19.3202 37.7072 16.8803 35.9022 15.6939C35.2619 15.2729 34.5212 15.0498 33.7586 15.0498C32.4319 15.0498 31.2075 15.7128 30.4811 16.8239Z" fill="#FF5554"/>
<path d="M37.2866 33.2412C36.6171 31.9078 35.2758 31.0796 33.7874 31.0796C33.1814 31.0796 32.5727 31.2247 32.0282 31.5007C31.0944 31.9726 30.4002 32.7812 30.0728 33.778C29.7442 34.7738 29.8231 35.8378 30.2944 36.7748C30.9632 38.1071 32.3041 38.9353 33.7921 38.9353C34.3985 38.9353 35.0068 38.7902 35.5524 38.5146C37.4802 37.5413 38.2582 35.1744 37.2866 33.2412Z" fill="#FF5554"/>
<path d="M44.1245 32.968C43.0625 32.2698 41.6354 32.5673 40.9385 33.6325C40.2413 34.6981 40.5391 36.1295 41.6007 36.8284C42.6639 37.527 44.0899 37.2302 44.7875 36.1635C45.4843 35.0987 45.1884 33.6673 44.1245 32.968Z" fill="#FF5554"/>
<path d="M51.6201 27.0694C51.6825 25.9876 50.8571 25.0602 49.7782 24.9989C48.6997 24.9371 47.7758 25.7638 47.7142 26.8471C47.6519 27.9281 48.4773 28.8551 49.5566 28.9169C50.6343 28.9786 51.5593 28.1504 51.6201 27.0694Z" fill="#FF5554"/>
<path d="M57.035 25.6737C56.3363 25.6343 55.7391 26.1692 55.6983 26.8697C55.6591 27.569 56.1924 28.1695 56.8908 28.2089C57.5884 28.249 58.1863 27.7133 58.2259 27.0136C58.2663 26.3132 57.7326 25.7134 57.035 25.6737Z" fill="#FF5554"/>
<path d="M51.9364 38.266C51.1918 37.7763 50.1933 37.9847 49.7066 38.7311C49.2187 39.4771 49.4257 40.479 50.1698 40.9683C50.9136 41.4577 51.9114 41.2497 52.4008 40.5033C52.8879 39.7561 52.6809 38.7558 51.9364 38.266Z" fill="#FF5554"/>
<path d="M16.0044 50.1232C15.4199 49.7384 14.6353 49.9024 14.2521 50.4883C13.8684 51.0753 14.0316 51.8618 14.6161 52.2462C15.2006 52.6314 15.9851 52.4666 16.368 51.8808C16.7516 51.2937 16.5888 50.5076 16.0044 50.1232Z" fill="#FF5554"/>
<path d="M42.5438 49.9902C41.9201 50.3048 41.6692 51.0682 41.984 51.6949C42.2976 52.3201 43.0591 52.5718 43.6839 52.2564C44.3073 51.9408 44.5593 51.1781 44.2446 50.5525C43.9298 49.9266 43.1683 49.6749 42.5438 49.9902Z" fill="#FF5554"/>
<path d="M27.8371 37.1811C28.4096 36.3043 28.6093 35.2557 28.3961 34.2291C28.1826 33.2022 27.5843 32.3199 26.7097 31.7449C26.0694 31.3238 25.3279 31.1003 24.5649 31.1003C23.2397 31.1003 22.0146 31.7634 21.2881 32.8749C20.7148 33.7521 20.5163 34.8007 20.7294 35.8273C20.9418 36.8539 21.5413 37.7361 22.4155 38.3115C23.0562 38.733 23.7973 38.9553 24.5599 38.9553C25.8858 38.9553 27.1102 38.2922 27.8371 37.1811Z" fill="#FF5554"/>
<path d="M20.016 43.1995C19.1125 42.6051 17.9008 42.8583 17.3083 43.7641C16.7153 44.6703 16.9674 45.886 17.8708 46.4807C18.7739 47.0747 19.9871 46.8219 20.5793 45.9161C21.1722 45.0087 20.919 43.7934 20.016 43.1995Z" fill="#FF5554"/>
<path d="M29.1403 50.7146C28.2522 50.6636 27.4915 51.3452 27.4407 52.2356C27.3895 53.1271 28.0687 53.8904 28.9571 53.9414C29.8456 53.9916 30.607 53.3112 30.6571 52.4197C30.7071 51.5289 30.0287 50.7648 29.1403 50.7146Z" fill="#FF5554"/>
<path d="M29.1586 40.5494C27.8904 40.4776 26.8026 41.4505 26.7303 42.723C26.6587 43.9954 27.6284 45.0868 28.897 45.1582C30.1667 45.2315 31.2537 44.2578 31.3257 42.9854C31.3984 41.713 30.428 40.6219 29.1586 40.5494Z" fill="#FF5554"/>
<path d="M38.5718 43.0422C37.6079 43.5308 37.2193 44.7094 37.706 45.6773C38.1916 46.6456 39.3675 47.0335 40.3325 46.5461C41.2976 46.0586 41.6847 44.8796 41.1991 43.9117C40.7135 42.9441 39.538 42.5547 38.5718 43.0422Z" fill="#FF5554"/>
<path d="M136.762 24.546C139.945 24.546 141.555 22.9499 141.555 19.4422C141.555 15.9346 139.945 14.3385 136.762 14.3385C133.58 14.3385 131.97 15.9346 131.97 19.4422C131.97 22.9499 133.58 24.546 136.762 24.546ZM136.762 22.7272C134.967 22.7272 134.264 21.6879 134.264 19.5721V19.3123C134.264 17.1966 134.967 16.1573 136.762 16.1573C138.538 16.1573 139.26 17.1966 139.26 19.3123V19.5721C139.26 21.6879 138.538 22.7272 136.762 22.7272ZM121.626 24.3233H123.847V18.6442C123.847 17.2523 124.809 16.2686 126.03 16.2686C127.14 16.2686 127.825 16.7326 127.825 18.1245V24.3233H130.045V17.7348C130.045 15.2479 128.75 14.3385 126.9 14.3385C125.493 14.3385 124.457 14.9509 123.773 15.8603H123.643L123.458 14.5612H121.626V24.3233ZM113.707 24.546C115.224 24.546 116.168 24.0078 116.815 23.2097H116.945C117.167 24.0263 117.833 24.5274 118.795 24.5274C119.461 24.5274 119.942 24.3604 120.183 24.2491V22.7272H119.591C119.258 22.7272 118.943 22.5416 118.943 22.0776V17.4193C118.943 15.4706 117.685 14.3385 115.057 14.3385C112.689 14.3385 111.098 15.3592 111.098 17.0481C111.098 17.2151 111.098 17.3451 111.116 17.4564H113.263V17.1966C113.263 16.6769 113.633 16.1016 115.057 16.1016C116.427 16.1016 116.723 16.7512 116.723 17.5863V18.4029C113.152 18.4029 110.617 19.1453 110.617 21.7992C110.617 24.1748 112.596 24.546 113.707 24.546ZM114.373 22.7643C113.392 22.7643 112.893 22.356 112.893 21.5765C112.893 20.2774 114.613 19.9804 116.723 19.9804V20.4259C116.723 21.8364 115.853 22.7643 114.373 22.7643ZM103.641 24.546C104.88 24.546 105.972 24.0449 106.62 23.0241H106.731L106.916 24.3233H108.748V10.905H106.527V15.6933H106.416C105.824 14.7839 104.825 14.3385 103.493 14.3385C101.328 14.3385 99.755 15.916 99.755 19.4237C99.755 22.987 101.254 24.546 103.641 24.546ZM104.307 22.6344C102.642 22.6344 102.049 21.6693 102.049 19.5721V19.3309C102.049 17.2151 102.66 16.2501 104.307 16.2501C105.861 16.2501 106.527 17.3636 106.527 19.3494V19.5721C106.527 21.5394 105.88 22.6344 104.307 22.6344ZM93.5378 24.3233H95.7582V19.2381C95.7582 17.4378 96.5909 16.6027 98.1082 16.6027H98.8113V14.5055C98.8113 14.5055 98.4228 14.3385 97.8862 14.3385C96.6649 14.3385 96.0543 15.1736 95.7027 16.1016H95.5732L95.3697 14.5612H93.5378V24.3233ZM85.6183 24.546C87.1356 24.546 88.0793 24.0078 88.7269 23.2097H88.8564C89.0785 24.0263 89.7446 24.5274 90.7068 24.5274C91.3729 24.5274 91.854 24.3604 92.0945 24.2491V22.7272H91.5024C91.1694 22.7272 90.8548 22.5416 90.8548 22.0776V17.4193C90.8548 15.4706 89.5966 14.3385 86.9691 14.3385C84.6006 14.3385 83.0093 15.3592 83.0093 17.0481C83.0093 17.2151 83.0093 17.3451 83.0278 17.4564H85.1742V17.1966C85.1742 16.6769 85.5443 16.1016 86.9691 16.1016C88.3383 16.1016 88.6344 16.7512 88.6344 17.5863V18.4029C85.0632 18.4029 82.5282 19.1453 82.5282 21.7992C82.5282 24.1748 84.5081 24.546 85.6183 24.546ZM86.2844 22.7643C85.3037 22.7643 84.8041 22.356 84.8041 21.5765C84.8041 20.2774 86.525 19.9804 88.6344 19.9804V20.4259C88.6344 21.8364 87.7647 22.7643 86.2844 22.7643ZM75.5524 24.546C78.7535 24.546 81.1589 22.987 81.1589 19.6649H78.8275C78.8275 21.5209 77.5507 22.5416 75.5894 22.5416C73.0174 22.5416 71.8331 21.1126 71.8331 18.1431V17.7719C71.8331 14.8581 73.0359 13.3734 75.5894 13.3734C77.4397 13.3734 78.735 14.3941 78.735 16.2872H81.1589C81.1589 12.9651 78.7165 11.369 75.5524 11.369C71.6666 11.369 69.4092 13.4848 69.4092 17.9575C69.4092 22.5416 71.6666 24.546 75.5524 24.546Z" fill="#FF5554"/>
<path d="M177.026 40.0057C179.302 40.0057 180.986 39.0963 180.986 36.9991C180.986 33.3244 174.991 34.605 174.991 32.4707C174.991 31.9325 175.324 31.153 176.989 31.153C178.617 31.153 179.135 31.8954 179.135 32.6563V32.8233H180.727C180.727 32.7862 180.745 32.6006 180.745 32.4707C180.745 31.0231 179.487 29.7982 177.174 29.7982C174.824 29.7982 173.307 30.8561 173.307 32.5821C173.307 36.0897 179.302 34.7164 179.302 37.2218C179.302 38.1684 178.321 38.6695 177.118 38.6695C175.749 38.6695 174.657 38.1498 174.657 36.9249V36.7393H173.048C173.048 36.7764 173.029 36.8878 173.029 37.1476C173.029 38.5952 174.176 40.0057 177.026 40.0057ZM167.534 39.783H169.162V34.0111C169.162 32.1738 170.309 31.5242 171.549 31.5242H172.233V29.9467C172.233 29.9467 171.882 29.7982 171.364 29.7982C170.032 29.7982 169.384 30.6705 169.069 31.4871H168.958L168.773 30.0209H167.534V39.783ZM161.15 40.0057C164.092 40.0057 165.646 38.4096 165.646 34.902C165.646 31.3943 164.092 29.7982 161.15 29.7982C158.208 29.7982 156.654 31.3943 156.654 34.902C156.654 38.4096 158.208 40.0057 161.15 40.0057ZM161.15 38.6509C159.188 38.6509 158.337 37.5745 158.337 34.9762V34.8277C158.337 32.2294 159.188 31.153 161.15 31.153C163.111 31.153 163.962 32.2294 163.962 34.8277V34.9762C163.962 37.5745 163.111 38.6509 161.15 38.6509ZM150.214 40.0057C151.473 40.0057 152.583 39.4861 153.23 38.4653H153.341L153.545 39.783H154.766V26.3647H153.138V31.1344H153.027C152.379 30.1879 151.435 29.7982 150.066 29.7982C147.864 29.7982 146.366 31.3572 146.366 34.902C146.366 38.4839 147.827 40.0057 150.214 40.0057ZM150.621 38.6509C148.771 38.6509 148.049 37.7044 148.049 34.9762V34.902C148.049 32.1181 148.789 31.153 150.621 31.153C152.398 31.153 153.138 32.4893 153.138 34.902V34.9762C153.138 37.3332 152.416 38.6509 150.621 38.6509ZM139.316 40.0057C140.703 40.0057 141.906 39.4489 142.572 38.5395H142.702C142.887 39.3747 143.479 39.9315 144.33 39.9315C144.941 39.9315 145.385 39.8016 145.588 39.7088V38.6509H144.848C144.515 38.6509 144.201 38.4653 144.201 38.0013V32.712C144.201 30.8746 142.961 29.7982 140.5 29.7982C138.187 29.7982 136.559 30.7261 136.559 32.5078C136.559 32.6749 136.559 32.8048 136.577 32.9161H138.15V32.6934C138.15 31.951 138.613 31.153 140.352 31.153C142.147 31.153 142.572 31.8768 142.572 32.9161V33.9926C138.835 33.9926 136.096 34.5679 136.096 37.259C136.096 39.616 138.094 40.0057 139.316 40.0057ZM139.741 38.6509C138.52 38.6509 137.798 38.2797 137.798 37.1662C137.798 35.6443 139.723 35.3474 142.572 35.3474V36.0526C142.572 37.7972 141.111 38.6509 139.741 38.6509ZM130.749 40.0057C133.024 40.0057 134.708 39.0963 134.708 36.9991C134.708 33.3244 128.713 34.605 128.713 32.4707C128.713 31.9325 129.046 31.153 130.712 31.153C132.34 31.153 132.858 31.8954 132.858 32.6563V32.8233H134.449C134.449 32.7862 134.468 32.6006 134.468 32.4707C134.468 31.0231 133.209 29.7982 130.897 29.7982C128.547 29.7982 127.029 30.8561 127.029 32.5821C127.029 36.0897 133.024 34.7164 133.024 37.2218C133.024 38.1684 132.044 38.6695 130.841 38.6695C129.472 38.6695 128.38 38.1498 128.38 36.9249V36.7393H126.77C126.77 36.7764 126.752 36.8878 126.752 37.1476C126.752 38.5952 127.899 40.0057 130.749 40.0057ZM121.497 40.0057C123.773 40.0057 125.457 39.0963 125.457 36.9991C125.457 33.3244 119.461 34.605 119.461 32.4707C119.461 31.9325 119.794 31.153 121.46 31.153C123.088 31.153 123.606 31.8954 123.606 32.6563V32.8233H125.197C125.197 32.7862 125.216 32.6006 125.216 32.4707C125.216 31.0231 123.958 29.7982 121.645 29.7982C119.295 29.7982 117.778 30.8561 117.778 32.5821C117.778 36.0897 123.773 34.7164 123.773 37.2218C123.773 38.1684 122.792 38.6695 121.589 38.6695C120.22 38.6695 119.128 38.1498 119.128 36.9249V36.7393H117.518C117.518 36.7764 117.5 36.8878 117.5 37.1476C117.5 38.5952 118.647 40.0057 121.497 40.0057ZM110.524 40.0057C111.912 40.0057 113.115 39.4489 113.781 38.5395H113.91C114.095 39.3747 114.687 39.9315 115.539 39.9315C116.149 39.9315 116.593 39.8016 116.797 39.7088V38.6509H116.057C115.724 38.6509 115.409 38.4653 115.409 38.0013V32.712C115.409 30.8746 114.169 29.7982 111.708 29.7982C109.395 29.7982 107.767 30.7261 107.767 32.5078C107.767 32.6749 107.767 32.8048 107.786 32.9161H109.358V32.6934C109.358 31.951 109.821 31.153 111.56 31.153C113.355 31.153 113.781 31.8768 113.781 32.9161V33.9926C110.043 33.9926 107.305 34.5679 107.305 37.259C107.305 39.616 109.303 40.0057 110.524 40.0057ZM110.95 38.6509C109.728 38.6509 109.007 38.2797 109.007 37.1662C109.007 35.6443 110.931 35.3474 113.781 35.3474V36.0526C113.781 37.7972 112.319 38.6509 110.95 38.6509ZM102.142 40.0057C104.529 40.0057 105.991 38.4839 105.991 34.902C105.991 31.3572 104.492 29.7982 102.29 29.7982C100.921 29.7982 99.9771 30.1879 99.3295 31.1344H99.2185V26.3647H97.5902V39.783H98.8114L99.0149 38.4653H99.126C99.7736 39.4861 100.884 40.0057 102.142 40.0057ZM101.735 38.6509C99.9401 38.6509 99.2185 37.3332 99.2185 34.9762V34.902C99.2185 32.4893 99.9586 31.153 101.735 31.153C103.567 31.153 104.307 32.1181 104.307 34.902V34.9762C104.307 37.7044 103.585 38.6509 101.735 38.6509ZM82.1767 39.783H83.805V34.0111C83.805 32.2109 84.8967 31.153 86.155 31.153C87.1356 31.153 87.8573 31.5427 87.8573 33.046V39.783H89.4856V34.0111C89.4856 32.2109 90.5403 31.153 91.7985 31.153C92.7792 31.153 93.5379 31.5427 93.5379 33.046V39.783H95.1662V32.7491C95.1662 30.5777 94.0005 29.7982 92.2981 29.7982C91.1139 29.7982 89.9667 30.3178 89.2821 31.3386H89.171C88.727 30.2436 87.8018 29.7982 86.6546 29.7982C85.4333 29.7982 84.4156 30.2807 83.731 31.3386H83.6015L83.4164 30.0209H82.1767V39.783ZM68.7246 39.783H70.538L71.7777 36.3867H77.6618L78.9386 39.783H80.8074L75.8855 27.0514H73.6466L68.7246 39.783ZM72.3513 34.8463L73.8316 30.8375L74.6642 28.5733H74.7568L75.6079 30.8746L77.0882 34.8463H72.3513Z" fill="#FF5554"/>
</g>
<defs>
<clipPath id="clip0_605_1384">
<rect width="181" height="54" fill="white"/>
</clipPath>
</defs>
</svg>
